<?xml version="1.0" encoding="UTF-8"?>
<svg height="16px" viewBox="0 0 16 16" width="16px" xmlns="http://www.w3.org/2000/svg" xmlns:xlink="http://www.w3.org/1999/xlink">
    <filter id="a" height="100%" width="100%" x="0%" y="0%">
        <feColorMatrix in="SourceGraphic" type="matrix" values="0 0 0 0 1 0 0 0 0 1 0 0 0 0 1 0 0 0 1 0"/>
    </filter>
    <mask id="b">
        <g filter="url(#a)">
            <path d="m 0 0 h 16 v 16 h -16 z" fill-opacity="0.3"/>
        </g>
    </mask>
    <clipPath id="c">
        <path d="m 0 0 h 1600 v 1200 h -1600 z"/>
    </clipPath>
    <mask id="d">
        <g filter="url(#a)">
            <path d="m 0 0 h 16 v 16 h -16 z" fill-opacity="0.05"/>
        </g>
    </mask>
    <clipPath id="e">
        <path d="m 0 0 h 1600 v 1200 h -1600 z"/>
    </clipPath>
    <mask id="f">
        <g filter="url(#a)">
            <path d="m 0 0 h 16 v 16 h -16 z" fill-opacity="0.05"/>
        </g>
    </mask>
    <clipPath id="g">
        <path d="m 0 0 h 1600 v 1200 h -1600 z"/>
    </clipPath>
    <mask id="h">
        <g filter="url(#a)">
            <path d="m 0 0 h 16 v 16 h -16 z" fill-opacity="0.05"/>
        </g>
    </mask>
    <clipPath id="i">
        <path d="m 0 0 h 1600 v 1200 h -1600 z"/>
    </clipPath>
    <mask id="j">
        <g filter="url(#a)">
            <path d="m 0 0 h 16 v 16 h -16 z" fill-opacity="0.05"/>
        </g>
    </mask>
    <clipPath id="k">
        <path d="m 0 0 h 1600 v 1200 h -1600 z"/>
    </clipPath>
    <mask id="l">
        <g filter="url(#a)">
            <path d="m 0 0 h 16 v 16 h -16 z" fill-opacity="0.05"/>
        </g>
    </mask>
    <clipPath id="m">
        <path d="m 0 0 h 1600 v 1200 h -1600 z"/>
    </clipPath>
    <mask id="n">
        <g filter="url(#a)">
            <path d="m 0 0 h 16 v 16 h -16 z" fill-opacity="0.05"/>
        </g>
    </mask>
    <clipPath id="o">
        <path d="m 0 0 h 1600 v 1200 h -1600 z"/>
    </clipPath>
    <mask id="p">
        <g filter="url(#a)">
            <path d="m 0 0 h 16 v 16 h -16 z" fill-opacity="0.3"/>
        </g>
    </mask>
    <clipPath id="q">
        <path d="m 0 0 h 1600 v 1200 h -1600 z"/>
    </clipPath>
    <mask id="r">
        <g filter="url(#a)">
            <path d="m 0 0 h 16 v 16 h -16 z" fill-opacity="0.5"/>
        </g>
    </mask>
    <clipPath id="s">
        <path d="m 0 0 h 1600 v 1200 h -1600 z"/>
    </clipPath>
    <g clip-path="url(#c)" mask="url(#b)" transform="matrix(1 0 0 1 -96 -756)">
        <path d="m 562.460938 212.058594 h 10.449218 c -1.183594 0.492187 -1.296875 2.460937 0 3 h -10.449218 z m 0 0" fill="#2e3436"/>
    </g>
    <g clip-path="url(#e)" mask="url(#d)" transform="matrix(1 0 0 1 -96 -756)">
        <path d="m 16 748 h 1 v 1 h -1 z m 0 0" fill="#2e3436" fill-rule="evenodd"/>
    </g>
    <g clip-path="url(#g)" mask="url(#f)" transform="matrix(1 0 0 1 -96 -756)">
        <path d="m 17 747 h 1 v 1 h -1 z m 0 0" fill="#2e3436" fill-rule="evenodd"/>
    </g>
    <g clip-path="url(#i)" mask="url(#h)" transform="matrix(1 0 0 1 -96 -756)">
        <path d="m 18 750 h 1 v 1 h -1 z m 0 0" fill="#2e3436" fill-rule="evenodd"/>
    </g>
    <g clip-path="url(#k)" mask="url(#j)" transform="matrix(1 0 0 1 -96 -756)">
        <path d="m 16 750 h 1 v 1 h -1 z m 0 0" fill="#2e3436" fill-rule="evenodd"/>
    </g>
    <g clip-path="url(#m)" mask="url(#l)" transform="matrix(1 0 0 1 -96 -756)">
        <path d="m 17 751 h 1 v 1 h -1 z m 0 0" fill="#2e3436" fill-rule="evenodd"/>
    </g>
    <g clip-path="url(#o)" mask="url(#n)" transform="matrix(1 0 0 1 -96 -756)">
        <path d="m 19 751 h 1 v 1 h -1 z m 0 0" fill="#2e3436" fill-rule="evenodd"/>
    </g>
    <path d="m 8.4375 1.480469 c -0.21875 0.179687 -0.410156 0.410156 -0.546875 0.675781 l -4.65625 9.125 c -0.542969 1.070312 -0.109375 2.386719 0.96875 2.960938 l 0.945313 0.496093 c 1.074218 0.570313 2.371093 0.175781 2.914062 -0.894531 l 4.660156 -9.121094 c 0.542969 -1.070312 0.109375 -2.390625 -0.96875 -2.960937 l -0.945312 -0.496094 c -0.804688 -0.429687 -1.726563 -0.320313 -2.371094 0.214844 z m -1.472656 4.464843 c 0.332031 -0.246093 0.8125 -0.179687 1.0625 0.140626 c 0.253906 0.320312 0.1875 0.789062 -0.140625 1.035156 c -0.332031 0.246094 -0.8125 0.183594 -1.0625 -0.140625 c -0.253907 -0.320313 -0.1875 -0.789063 0.140625 -1.035157 z m -0.992188 1.980469 c 0.328125 -0.246093 0.808594 -0.183593 1.0625 0.136719 c 0.25 0.324219 0.1875 0.792969 -0.144531 1.039062 c -0.328125 0.246094 -0.808594 0.179688 -1.0625 -0.140624 c -0.25 -0.320313 -0.1875 -0.789063 0.144531 -1.035157 z m 3.023438 -1.011719 c 0.328125 -0.246093 0.808594 -0.183593 1.0625 0.140626 c 0.25 0.320312 0.1875 0.789062 -0.144532 1.035156 c -0.328124 0.246094 -0.808593 0.183594 -1.0625 -0.140625 c -0.25 -0.320313 -0.1875 -0.789063 0.144532 -1.035157 z m -0.992188 1.980469 c 0.328125 -0.246093 0.808594 -0.183593 1.0625 0.136719 c 0.25 0.324219 0.183594 0.792969 -0.144531 1.039062 c -0.328125 0.242188 -0.8125 0.179688 -1.0625 -0.140624 c -0.25 -0.320313 -0.1875 -0.789063 0.144531 -1.035157 z m 0 0" fill="#2e3436"/>
    <path d="m 3.59375 3 c -0.839844 -0.035156 -1.609375 0.4375 -1.96875 1.28125 l -0.4375 1 c -0.480469 1.128906 0 2.46875 1.09375 3 l 0.875 0.40625 l 2.4375 -4.90625 l -1.15625 -0.5625 c -0.273438 -0.132812 -0.5625 -0.207031 -0.84375 -0.21875 z m 9.28125 4.28125 l -2.46875 4.90625 l 1.21875 0.59375 c 1.09375 0.53125 2.332031 0.066406 2.8125 -1.0625 l 0.4375 -1 c 0.480469 -1.128906 0 -2.46875 -1.09375 -3 z m 0 0" fill="#2e3436" fill-opacity="0.501961"/>
    <g clip-path="url(#q)" mask="url(#p)" transform="matrix(1 0 0 1 -96 -756)">
        <path d="m 136 776 v 7 h 7 v -7 z m 0 0" fill="#2e3436"/>
    </g>
    <g clip-path="url(#s)" mask="url(#r)" transform="matrix(1 0 0 1 -96 -756)">
        <path d="m 219 758 h 3 v 12 h -3 z m 0 0" fill="#2e3436"/>
    </g>
</svg>
